<svg width="4732" height="4523" viewBox="0 0 4732 4523" fill="none" xmlns="http://www.w3.org/2000/svg">
<path d="M1241.08 4354.11L1417.78 3645.28H737.568C631.166 3645.28 624.353 3549.9 614.065 3501.98C419.629 2596.36 25.436 756.459 4.15562 641.824C-17.1247 527.188 48.4897 488.34 83.9569 483.245C1526.71 332.308 4449.09 25.0844 4596.53 3.68578C4743.97 -17.7129 4735.1 59.2462 4729.53 101.126C4600.33 1072.34 4354.5 3038.58 4341.93 3129.42C4333.97 3186.89 4263.67 3200.11 4226.02 3200.11H3068.91C2583.13 3567.58 1572.82 4336.15 1417.78 4470.65C1262.74 4605.16 1235.38 4449 1241.08 4354.11Z" fill="#3EBEFD"/>
<ellipse cx="1898.49" cy="1998.34" rx="153.902" ry="154.758" fill="white"/>
<ellipse cx="2445.7" cy="1910.46" rx="153.902" ry="154.758" fill="white"/>
<ellipse cx="2992.91" cy="1845.5" rx="153.902" ry="154.758" fill="white"/>
</svg>
